HIERARCHY
ROOT joint_Root
{
  OFFSET 0 0 0
  CHANNELS 6 Xposition Yposition Zposition Zrotation Xrotation Yrotation
  JOINT Hips
  {
    OFFSET 0.847027 93.984 -452.225
    CHANNELS 6 Xposition Yposition Zposition Zrotation Xrotation Yrotation
    JOINT Spine
    {
      OFFSET 15.7357 0 0
      CHANNELS 6 Xposition Yposition Zposition Zrotation Xrotation Yrotation
      JOINT Chest
      {
        OFFSET 8.98455 -0.406207 0
        CHANNELS 6 Xposition Yposition Zposition Zrotation Xrotation Yrotation
        JOINT Neck
        {
          OFFSET 16.3773 0 0
          CHANNELS 6 Xposition Yposition Zposition Zrotation Xrotation Yrotation
          JOINT Head
          {
            OFFSET 6.45672 0 0
            CHANNELS 6 Xposition Yposition Zposition Zrotation Xrotation Yrotation
            End Site
            {
              OFFSET 0 0 0
            }
          }
        }
        JOINT Shoulder_L
        {
          OFFSET 12.9942 -0.242716 4.98039
          CHANNELS 6 Xposition Yposition Zposition Zrotation Xrotation Yrotation
          JOINT UpperArm_L
          {
            OFFSET 5.34809 0 0
            CHANNELS 6 Xposition Yposition Zposition Zrotation Xrotation Yrotation
            JOINT LowerArm_L
            {
              OFFSET 24.3286 1.87007e-05 0
              CHANNELS 6 Xposition Yposition Zposition Zrotation Xrotation Yrotation
              JOINT Hand_L
              {
                OFFSET 22.2916 0 0
                CHANNELS 6 Xposition Yposition Zposition Zrotation Xrotation Yrotation
                End Site
                {
                  OFFSET 0 0 0
                }
              }
            }
          }
        }
        JOINT Shoulder_R
        {
          OFFSET 12.9945 -0.242716 -4.98039
          CHANNELS 6 Xposition Yposition Zposition Zrotation Xrotation Yrotation
          JOINT UpperArm_R
          {
            OFFSET -5.34813 0 0
            CHANNELS 6 Xposition Yposition Zposition Zrotation Xrotation Yrotation
            JOINT LowerArm_R
            {
              OFFSET -24.3289 0.000322201 0
              CHANNELS 6 Xposition Yposition Zposition Zrotation Xrotation Yrotation
              JOINT Hand_R
              {
                OFFSET -22.2915 -0.000108084 0
                CHANNELS 6 Xposition Yposition Zposition Zrotation Xrotation Yrotation
                End Site
                {
                  OFFSET 0 0 0
                }
              }
            }
          }
        }
      }
    }
    JOINT UpperLeg_L
    {
      OFFSET -2.19248 -6.46944 0
      CHANNELS 6 Xposition Yposition Zposition Zrotation Xrotation Yrotation
      JOINT LowerLeg_L
      {
        OFFSET 39.0811 0 -1.23785e-05
        CHANNELS 6 Xposition Yposition Zposition Zrotation Xrotation Yrotation
        JOINT Foot_L
        {
          OFFSET 40.9854 0 -1.26872e-05
          CHANNELS 6 Xposition Yposition Zposition Zrotation Xrotation Yrotation
          JOINT Toes_L
          {
            OFFSET 11.7543 0 0
            CHANNELS 6 Xposition Yposition Zposition Zrotation Xrotation Yrotation
            End Site
            {
              OFFSET 0 0 0
            }
          }
        }
      }
    }
    JOINT UpperLeg_R
    {
      OFFSET -2.19251 6.46944 0
      CHANNELS 6 Xposition Yposition Zposition Zrotation Xrotation Yrotation
      JOINT LowerLeg_R
      {
        OFFSET -39.0811 -0.00228153 -0.0401928
        CHANNELS 6 Xposition Yposition Zposition Zrotation Xrotation Yrotation
        JOINT Foot_R
        {
          OFFSET -40.9854 0 0
          CHANNELS 6 Xposition Yposition Zposition Zrotation Xrotation Yrotation
          JOINT Toes_R
          {
            OFFSET -11.7543 0 0
            CHANNELS 6 Xposition Yposition Zposition Zrotation Xrotation Yrotation
            End Site
            {
              OFFSET 0 0 0
            }
          }
        }
      }
    }
  }
}
MOTION
Frames:	6
Frame Time:	0.0333333
0 0 0 0 0 -0 5.03985 98.3572 50.0954 90.4502 8.51415 -7.55673 15.7357 5.1072e-06 -5.51765e-07 36.1427 82.7045 -33.1084 8.98455 -0.406207 -4.3199e-07 1.19647 -11.9522 6.20599 16.3773 -1.3905e-06 -6.99897e-07 -3.43023 -2.49819 1.38855 6.45672 -1.25837e-06 -1.02172e-07 -4.9252 5.73414 1.99325 12.9942 -0.242716 4.98039 -88.3813 -9.7557 -95.5313 5.34809 -7.22636e-06 -6.2814e-07 -57.3931 23.467 -24.2511 24.3286 1.87007e-05 4.90208e-06 -7.33143 4.81914 -123.142 22.2916 -9.88446e-07 4.63217e-06 9.81679 5.40148 -2.98465 12.9945 -0.242716 -4.98039 92.7368 -6.37803 -81.7181 -5.34813 -1.25947e-06 -3.79883e-06 -76.5708 18.566 42.847 -24.3289 0.000322201 -8.65921e-06 13.1188 -2.44226 -100.363 -22.2915 -0.000108084 -4.47941e-06 8.0668 5.53115 -7.85225 -2.19248 -6.46944 -1.22534e-07 -170.601 -5.68341 9.20628 39.0811 -6.73843e-06 -1.23785e-05 0.776881 -0.359368 64.0933 40.9854 -6.48686e-06 -1.26872e-05 -17.537 2.30798 -17.208 11.7543 -2.30145e-07 3.05095e-06 0.136426 -0.227114 -20.5591 -2.19251 6.46944 -1.45247e-06 -175.658 11.4258 152.536 -39.0811 -0.00228153 -0.0401928 -0.00491491 0.0286044 9.25967 -40.9854 7.72618e-06 5.99936e-06 -1.29178 8.78349 -34.3766 -11.7543 -5.6619e-06 -5.58687e-06 0.386462 -0.464701 -21.0188 
0 0 0 0 0 -0 4.78048 94.8341 58.0602 90.0844 7.63915 -8.41333 15.7357 5.1072e-06 -5.51765e-07 38.1289 83.3982 -34.758 8.98455 -0.406207 -4.3199e-07 0.727099 -10.5899 6.81938 16.3773 -1.3905e-06 -6.99897e-07 -3.88324 -2.33986 0.640356 6.45672 -1.25837e-06 -1.02172e-07 -5.50486 4.60047 2.62982 12.9942 -0.242716 4.98039 -88.6381 -7.5014 -94.6754 5.34809 -7.22636e-06 -6.2814e-07 -56.253 24.5302 -22.8822 24.3286 1.87007e-05 4.90208e-06 -7.36255 4.48787 -121.2 22.2916 -9.88446e-07 4.63217e-06 10.954 5.42564 -3.78089 12.9945 -0.242716 -4.98039 91.5863 -3.83825 -82.5309 -5.34813 -1.25947e-06 -3.79883e-06 -73.7488 16.7495 39.0408 -24.3289 0.000322201 -8.65921e-06 11.2222 -1.9561 -99.7575 -22.2915 -0.000108084 -4.47941e-06 10.4645 5.52346 -7.50416 -2.19248 -6.46944 -1.22534e-07 -170.757 -5.28811 3.50567 39.0811 -6.73843e-06 -1.23785e-05 1.1089 -0.171945 80.6271 40.9854 -6.48686e-06 -1.26872e-05 -19.5208 0.613035 -13.4232 11.7543 -2.30145e-07 3.05095e-06 0.133876 -0.22247 -20.4794 -2.19251 6.46944 -1.45247e-06 -172.371 15.8649 149.152 -39.0811 -0.00228153 -0.0401928 -0.0201796 0.0959381 13.2354 -40.9854 7.72618e-06 5.99936e-06 -3.58437 4.79481 -32.2656 -11.7543 -5.6619e-06 -5.58687e-06 0.382084 -0.458999 -20.9659 
0 0 0 0 0 -0 4.44352 90.3209 65.7763 89.2543 7.06821 -9.16055 15.7357 5.1072e-06 -5.51765e-07 41.5511 83.9122 -37.6889 8.98455 -0.406207 -4.3199e-07 0.651821 -9.34852 7.78565 16.3773 -1.3905e-06 -6.99897e-07 -4.3494 -1.783 -0.416704 6.45672 -1.25837e-06 -1.02172e-07 -6.58681 3.70612 2.71776 12.9942 -0.242716 4.98039 -89.2194 -3.83161 -93.4716 5.34809 -7.22636e-06 -6.2814e-07 -54.7428 24.6574 -19.9011 24.3286 1.87007e-05 4.90208e-06 -8.37808 4.58796 -118.51 22.2916 -9.88446e-07 4.63217e-06 12.6323 5.4705 -5.37821 12.9945 -0.242716 -4.98039 90.1802 -0.460655 -83.6874 -5.34813 -1.25947e-06 -3.79883e-06 -70.0216 16.2954 32.8675 -24.3289 0.000322201 -8.65921e-06 8.17886 -0.981393 -96.7881 -22.2915 -0.000108084 -4.47941e-06 14.2246 5.5404 -8.23368 -2.19248 -6.46944 -1.22534e-07 -171.04 -5.55671 -4.42474 39.0811 -6.73843e-06 -1.23785e-05 1.14451 0.165101 98.048 40.9854 -6.48686e-06 -1.26872e-05 -13.5861 -2.75015 -10.255 11.7543 -2.30145e-07 3.05095e-06 0.124694 -0.206062 -20.1967 -2.19251 6.46944 -1.45247e-06 -169.258 17.2025 143.63 -39.0811 -0.00228153 -0.0401928 0.00209881 -0.0118255 31.1146 -40.9854 7.72618e-06 5.99936e-06 8.44481 6.82887 -51.9377 -11.7543 -5.6619e-06 -5.58687e-06 0.210322 -0.386261 -21.969 
0 0 0 0 0 -0 3.86263 85.2877 73.4463 87.5716 6.68104 -7.60044 15.7357 5.1072e-06 -5.51765e-07 51.781 83.8434 -47.2998 8.98455 -0.406207 -4.3199e-07 2.25028 -7.8279 9.11926 16.3773 -1.3905e-06 -6.99897e-07 -4.97523 -1.48866 -0.992834 6.45672 -1.25837e-06 -1.02172e-07 -7.65248 3.30712 1.93173 12.9942 -0.242716 4.98039 -90.1727 0.798508 -92.7536 5.34809 -7.22636e-06 -6.2814e-07 -54.827 22.765 -13.5534 24.3286 1.87007e-05 4.90208e-06 -7.51433 3.35973 -113.93 22.2916 -9.88446e-07 4.63217e-06 12.2629 5.51787 -7.29753 12.9945 -0.242716 -4.98039 88.0087 5.75596 -85.8384 -5.34813 -1.25947e-06 -3.79883e-06 -62.5689 16.1255 26.6358 -24.3289 0.000322201 -8.65921e-06 7.15609 -0.610217 -94.8531 -22.2915 -0.000108084 -4.47941e-06 15.5831 5.57297 -9.8604 -2.19248 -6.46944 -1.22534e-07 -170.242 -5.34098 -12.5622 39.0811 -6.73843e-06 -1.23785e-05 0.936671 0.401586 113.551 40.9854 -6.48686e-06 -1.26872e-05 -7.66963 -5.07213 -2.91281 11.7543 -2.30145e-07 3.05095e-06 0.119937 -0.197634 -20.0516 -2.19251 6.46944 -1.45247e-06 -169.897 10.5636 141.725 -39.0811 -0.00228153 -0.0401928 0.0207885 0.0038912 51.3645 -40.9854 7.72618e-06 5.99936e-06 6.83363 -1.33637 -72.5508 -11.7543 -5.6619e-06 -5.58687e-06 0.0498276 -0.0559298 -17.1248 
0 0 0 0 0 -0 3.07587 81.5109 80.5251 85.1828 4.28904 -5.32546 15.7357 5.1072e-06 -5.51765e-07 70.6217 83.3021 -65.0709 8.98455 -0.406207 -4.3199e-07 5.1297 -4.56242 11.2988 16.3773 -1.3905e-06 -6.99897e-07 -6.626 -0.243297 -1.7341 6.45672 -1.25837e-06 -1.02172e-07 -8.32193 2.49882 -1.18718 12.9942 -0.242716 4.98039 -90.9704 4.51473 -92.856 5.34809 -7.22636e-06 -6.2814e-07 -59.354 17.9361 -3.99322 24.3286 1.87007e-05 4.90208e-06 -5.60143 1.16698 -101.708 22.2916 -9.88446e-07 4.63217e-06 14.6309 5.58314 -10.5008 12.9945 -0.242716 -4.98039 86.5503 12.3724 -89.2868 -5.34813 -1.25947e-06 -3.79883e-06 -51.8699 17.0356 16.7054 -24.3289 0.000322201 -8.65921e-06 4.82524 -0.849998 -99.9768 -22.2915 -0.000108084 -4.47941e-06 18.0896 5.58491 -10.4857 -2.19248 -6.46944 -1.22533e-07 -168.96 -4.9574 -23.5436 39.0811 -6.73843e-06 -1.23785e-05 0.521082 0.338363 124.353 40.9854 -6.48686e-06 -1.26872e-05 -9.79101 -1.26805 8.91164 11.7543 -2.30145e-07 3.05095e-06 0.111854 -0.183424 -19.8057 -2.19251 6.46944 -1.45247e-06 -167.773 6.77256 144.471 -39.0811 -0.00228153 -0.0401928 -0.040367 0.0547982 61.8886 -40.9854 7.72618e-06 5.99936e-06 6.55338 -4.64918 -83.0596 -11.7543 -5.6619e-06 -5.58687e-06 0.126631 -0.14431 -17.9858 
0 0 0 0 0 -0 2.88447 79.5918 88.7053 85.8945 2.4467 -2.93164 15.7357 5.1072e-06 -5.51765e-07 82.2899 82.9097 -76.9009 8.98455 -0.406207 -4.3199e-07 6.40444 -1.95989 10.8769 16.3773 -1.3905e-06 -6.99897e-07 -5.21801 -0.0808582 -1.10982 6.45672 -1.25837e-06 -1.02172e-07 -7.4599 2.1416 -4.13374 12.9942 -0.242716 4.98039 -90.8867 3.75697 -91.7114 5.34809 -7.22636e-06 -6.2814e-07 -65.9771 15.7797 5.25961 24.3286 1.87007e-05 4.90208e-06 0.00192045 0.00614157 -87.6811 22.2916 -9.88446e-07 4.63217e-06 20.4448 5.54666 -8.61978 12.9945 -0.242716 -4.98039 87.3009 9.86409 -89.615 -5.34813 -1.25947e-06 -3.79883e-06 -50.9064 17.9722 0.430961 -24.3289 0.000322201 -8.65921e-06 7.64893 -2.24284 -106.205 -22.2915 -0.000108084 -4.47941e-06 15.6205 5.59723 -11.1797 -2.19248 -6.46944 -1.22534e-07 -171.137 -4.01217 -33.1961 39.0811 -6.73843e-06 -1.23785e-05 -0.0165266 -0.0368473 128.187 40.9854 -6.48686e-06 -1.26872e-05 -12.1203 2.25663 10.3384 11.7543 -2.30145e-07 3.05095e-06 0.111525 -0.182856 -19.7961 -2.19251 6.46944 -1.45247e-06 -169.186 9.36601 152.397 -39.0811 -0.00228153 -0.0401928 0.175577 -0.034816 65.3111 -40.9854 7.72618e-06 5.99936e-06 8.65064 -3.03939 -91.4285 -11.7543 -5.6619e-06 -5.58687e-06 0.236831 -0.275987 -19.2483 
